<mxfile host="Electron" agent="Mozilla/5.0 (Windows NT 10.0; Win64; x64) AppleWebKit/537.36 (KHTML, like Gecko) draw.io/24.7.17 Chrome/128.0.6613.36 Electron/32.0.1 Safari/537.36" version="24.7.17">
  <diagram name="第 1 页" id="R6OtPHjs4i7weJ-paRmS">
    <mxGraphModel dx="1434" dy="844" grid="0" gridSize="10" guides="1" tooltips="0" connect="1" arrows="1" fold="1" page="0" pageScale="1" pageWidth="827" pageHeight="1169" math="0" shadow="0">
      <root>
        <mxCell id="0" />
        <mxCell id="1" parent="0" />
        <mxCell id="4oE0jzgOYahv-gc3Ou6W-43" value="" style="rounded=0;whiteSpace=wrap;html=1;fillColor=#fff2cc;strokeColor=#d6b656;" parent="1" vertex="1">
          <mxGeometry x="640" y="383" width="330" height="175" as="geometry" />
        </mxCell>
        <mxCell id="4oE0jzgOYahv-gc3Ou6W-34" value="" style="rounded=0;whiteSpace=wrap;html=1;fillColor=#dae8fc;strokeColor=#6c8ebf;" parent="1" vertex="1">
          <mxGeometry x="480" y="656" width="360" height="294" as="geometry" />
        </mxCell>
        <mxCell id="4oE0jzgOYahv-gc3Ou6W-11" value="1" style="edgeStyle=orthogonalEdgeStyle;rounded=0;orthogonalLoop=1;jettySize=auto;html=1;exitX=1.011;exitY=0.438;exitDx=0;exitDy=0;exitPerimeter=0;dashed=1;" parent="1" source="4oE0jzgOYahv-gc3Ou6W-26" target="4oE0jzgOYahv-gc3Ou6W-2" edge="1">
          <mxGeometry relative="1" as="geometry">
            <mxPoint x="530" y="540" as="sourcePoint" />
          </mxGeometry>
        </mxCell>
        <mxCell id="4oE0jzgOYahv-gc3Ou6W-12" value="1.登录" style="edgeLabel;html=1;align=center;verticalAlign=middle;resizable=0;points=[];" parent="4oE0jzgOYahv-gc3Ou6W-11" vertex="1" connectable="0">
          <mxGeometry x="0.0388" y="-1" relative="1" as="geometry">
            <mxPoint as="offset" />
          </mxGeometry>
        </mxCell>
        <mxCell id="4oE0jzgOYahv-gc3Ou6W-23" style="edgeStyle=orthogonalEdgeStyle;rounded=0;orthogonalLoop=1;jettySize=auto;html=1;entryX=0;entryY=0.5;entryDx=0;entryDy=0;exitX=0.5;exitY=1;exitDx=0;exitDy=0;dashed=1;" parent="1" source="4oE0jzgOYahv-gc3Ou6W-26" target="4oE0jzgOYahv-gc3Ou6W-4" edge="1">
          <mxGeometry relative="1" as="geometry">
            <mxPoint x="460.0000000000002" y="570" as="sourcePoint" />
            <Array as="points">
              <mxPoint x="314" y="910" />
            </Array>
          </mxGeometry>
        </mxCell>
        <mxCell id="4oE0jzgOYahv-gc3Ou6W-25" value="8.连接" style="edgeLabel;html=1;align=center;verticalAlign=middle;resizable=0;points=[];" parent="4oE0jzgOYahv-gc3Ou6W-23" vertex="1" connectable="0">
          <mxGeometry x="-0.329" y="2" relative="1" as="geometry">
            <mxPoint as="offset" />
          </mxGeometry>
        </mxCell>
        <mxCell id="4oE0jzgOYahv-gc3Ou6W-7" style="edgeStyle=orthogonalEdgeStyle;rounded=0;orthogonalLoop=1;jettySize=auto;html=1;dashed=1;exitX=0.25;exitY=1;exitDx=0;exitDy=0;" parent="1" source="4oE0jzgOYahv-gc3Ou6W-2" target="4oE0jzgOYahv-gc3Ou6W-6" edge="1">
          <mxGeometry relative="1" as="geometry">
            <Array as="points">
              <mxPoint x="765" y="590" />
              <mxPoint x="634" y="590" />
            </Array>
          </mxGeometry>
        </mxCell>
        <mxCell id="4oE0jzgOYahv-gc3Ou6W-13" value="2.分配ds" style="edgeLabel;html=1;align=center;verticalAlign=middle;resizable=0;points=[];" parent="4oE0jzgOYahv-gc3Ou6W-7" vertex="1" connectable="0">
          <mxGeometry x="0.0514" y="1" relative="1" as="geometry">
            <mxPoint as="offset" />
          </mxGeometry>
        </mxCell>
        <mxCell id="4oE0jzgOYahv-gc3Ou6W-19" style="edgeStyle=orthogonalEdgeStyle;rounded=0;orthogonalLoop=1;jettySize=auto;html=1;entryX=0.5;entryY=0;entryDx=0;entryDy=0;dashed=1;exitX=0.5;exitY=0;exitDx=0;exitDy=0;" parent="1" source="4oE0jzgOYahv-gc3Ou6W-2" target="4oE0jzgOYahv-gc3Ou6W-26" edge="1">
          <mxGeometry relative="1" as="geometry">
            <mxPoint x="460" y="500" as="targetPoint" />
            <Array as="points">
              <mxPoint x="800" y="430" />
              <mxPoint x="414" y="430" />
            </Array>
          </mxGeometry>
        </mxCell>
        <mxCell id="4oE0jzgOYahv-gc3Ou6W-22" value="6.通知切场景" style="edgeLabel;html=1;align=center;verticalAlign=middle;resizable=0;points=[];" parent="4oE0jzgOYahv-gc3Ou6W-19" vertex="1" connectable="0">
          <mxGeometry x="-0.0217" relative="1" as="geometry">
            <mxPoint as="offset" />
          </mxGeometry>
        </mxCell>
        <mxCell id="4oE0jzgOYahv-gc3Ou6W-2" value="GlobalSpaceManager" style="rounded=1;whiteSpace=wrap;html=1;" parent="1" vertex="1">
          <mxGeometry x="725" y="440" width="160" height="77" as="geometry" />
        </mxCell>
        <mxCell id="4oE0jzgOYahv-gc3Ou6W-9" style="edgeStyle=orthogonalEdgeStyle;rounded=0;orthogonalLoop=1;jettySize=auto;html=1;dashed=1;entryX=0.25;entryY=0;entryDx=0;entryDy=0;" parent="1" source="4oE0jzgOYahv-gc3Ou6W-3" target="4oE0jzgOYahv-gc3Ou6W-4" edge="1">
          <mxGeometry relative="1" as="geometry">
            <Array as="points" />
          </mxGeometry>
        </mxCell>
        <mxCell id="4oE0jzgOYahv-gc3Ou6W-15" value="4.创建DS" style="edgeLabel;html=1;align=center;verticalAlign=middle;resizable=0;points=[];" parent="4oE0jzgOYahv-gc3Ou6W-9" vertex="1" connectable="0">
          <mxGeometry x="0.0419" y="-2" relative="1" as="geometry">
            <mxPoint as="offset" />
          </mxGeometry>
        </mxCell>
        <mxCell id="4oE0jzgOYahv-gc3Ou6W-3" value="DS_Seed&lt;br&gt;sceneA" style="rounded=1;whiteSpace=wrap;html=1;" parent="1" vertex="1">
          <mxGeometry x="490" y="756" width="120" height="60" as="geometry" />
        </mxCell>
        <mxCell id="4oE0jzgOYahv-gc3Ou6W-17" style="edgeStyle=orthogonalEdgeStyle;rounded=0;orthogonalLoop=1;jettySize=auto;html=1;dashed=1;exitX=0.5;exitY=1;exitDx=0;exitDy=0;entryX=1;entryY=0.5;entryDx=0;entryDy=0;" parent="1" source="4oE0jzgOYahv-gc3Ou6W-4" target="4oE0jzgOYahv-gc3Ou6W-6" edge="1">
          <mxGeometry relative="1" as="geometry">
            <Array as="points">
              <mxPoint x="590" y="988" />
              <mxPoint x="920" y="988" />
              <mxPoint x="920" y="706" />
            </Array>
          </mxGeometry>
        </mxCell>
        <mxCell id="GztpzwyUtiFWnYNijwIe-10" value="5. 注册" style="edgeLabel;html=1;align=center;verticalAlign=middle;resizable=0;points=[];" vertex="1" connectable="0" parent="4oE0jzgOYahv-gc3Ou6W-17">
          <mxGeometry x="-0.2654" y="-3" relative="1" as="geometry">
            <mxPoint as="offset" />
          </mxGeometry>
        </mxCell>
        <mxCell id="4oE0jzgOYahv-gc3Ou6W-4" value="DS" style="rounded=1;whiteSpace=wrap;html=1;" parent="1" vertex="1">
          <mxGeometry x="530" y="880" width="120" height="60" as="geometry" />
        </mxCell>
        <mxCell id="4oE0jzgOYahv-gc3Ou6W-8" style="edgeStyle=orthogonalEdgeStyle;rounded=0;orthogonalLoop=1;jettySize=auto;html=1;entryX=0.5;entryY=0;entryDx=0;entryDy=0;exitX=0;exitY=0.5;exitDx=0;exitDy=0;dashed=1;" parent="1" source="4oE0jzgOYahv-gc3Ou6W-6" target="4oE0jzgOYahv-gc3Ou6W-3" edge="1">
          <mxGeometry relative="1" as="geometry" />
        </mxCell>
        <mxCell id="4oE0jzgOYahv-gc3Ou6W-14" value="3.通知" style="edgeLabel;html=1;align=center;verticalAlign=middle;resizable=0;points=[];" parent="4oE0jzgOYahv-gc3Ou6W-8" vertex="1" connectable="0">
          <mxGeometry x="0.008" y="3" relative="1" as="geometry">
            <mxPoint as="offset" />
          </mxGeometry>
        </mxCell>
        <mxCell id="4oE0jzgOYahv-gc3Ou6W-45" style="edgeStyle=orthogonalEdgeStyle;rounded=0;orthogonalLoop=1;jettySize=auto;html=1;" parent="1" source="4oE0jzgOYahv-gc3Ou6W-6" edge="1">
          <mxGeometry relative="1" as="geometry">
            <mxPoint x="600" y="880" as="targetPoint" />
            <Array as="points">
              <mxPoint x="660" y="820" />
              <mxPoint x="600" y="820" />
            </Array>
          </mxGeometry>
        </mxCell>
        <mxCell id="4oE0jzgOYahv-gc3Ou6W-46" style="edgeStyle=orthogonalEdgeStyle;rounded=0;orthogonalLoop=1;jettySize=auto;html=1;entryX=0.5;entryY=0;entryDx=0;entryDy=0;" parent="1" source="4oE0jzgOYahv-gc3Ou6W-6" target="4oE0jzgOYahv-gc3Ou6W-28" edge="1">
          <mxGeometry relative="1" as="geometry">
            <Array as="points">
              <mxPoint x="660" y="820" />
              <mxPoint x="750" y="820" />
            </Array>
          </mxGeometry>
        </mxCell>
        <mxCell id="GztpzwyUtiFWnYNijwIe-11" style="edgeStyle=orthogonalEdgeStyle;rounded=0;orthogonalLoop=1;jettySize=auto;html=1;entryX=0.75;entryY=1;entryDx=0;entryDy=0;exitX=0.75;exitY=0;exitDx=0;exitDy=0;dashed=1;" edge="1" parent="1" source="4oE0jzgOYahv-gc3Ou6W-6" target="4oE0jzgOYahv-gc3Ou6W-2">
          <mxGeometry relative="1" as="geometry">
            <Array as="points">
              <mxPoint x="688" y="676" />
              <mxPoint x="688" y="625" />
              <mxPoint x="845" y="625" />
            </Array>
          </mxGeometry>
        </mxCell>
        <mxCell id="GztpzwyUtiFWnYNijwIe-14" value="6. 注册" style="edgeLabel;html=1;align=center;verticalAlign=middle;resizable=0;points=[];" vertex="1" connectable="0" parent="GztpzwyUtiFWnYNijwIe-11">
          <mxGeometry x="0.2579" relative="1" as="geometry">
            <mxPoint as="offset" />
          </mxGeometry>
        </mxCell>
        <mxCell id="4oE0jzgOYahv-gc3Ou6W-6" value="BattleGuard" style="rounded=1;whiteSpace=wrap;html=1;" parent="1" vertex="1">
          <mxGeometry x="600" y="676" width="120" height="60" as="geometry" />
        </mxCell>
        <mxCell id="4oE0jzgOYahv-gc3Ou6W-26" value="Client" style="ellipse;whiteSpace=wrap;html=1;" parent="1" vertex="1">
          <mxGeometry x="254" y="512" width="120" height="80" as="geometry" />
        </mxCell>
        <mxCell id="4oE0jzgOYahv-gc3Ou6W-28" value="DS" style="rounded=1;whiteSpace=wrap;html=1;" parent="1" vertex="1">
          <mxGeometry x="690" y="880" width="120" height="60" as="geometry" />
        </mxCell>
        <mxCell id="4oE0jzgOYahv-gc3Ou6W-49" value="Cloud" style="text;html=1;strokeColor=none;fillColor=none;align=center;verticalAlign=middle;whiteSpace=wrap;rounded=0;fontColor=#FF00FF;" parent="1" vertex="1">
          <mxGeometry x="910" y="383" width="60" height="30" as="geometry" />
        </mxCell>
        <mxCell id="4oE0jzgOYahv-gc3Ou6W-50" value="Pod" style="text;html=1;strokeColor=none;fillColor=none;align=center;verticalAlign=middle;whiteSpace=wrap;rounded=0;fontColor=#FF00FF;" parent="1" vertex="1">
          <mxGeometry x="767" y="660" width="60" height="30" as="geometry" />
        </mxCell>
        <mxCell id="GztpzwyUtiFWnYNijwIe-1" value="" style="rounded=0;whiteSpace=wrap;html=1;fillColor=#dae8fc;strokeColor=#6c8ebf;" vertex="1" parent="1">
          <mxGeometry x="943" y="656" width="360" height="294" as="geometry" />
        </mxCell>
        <mxCell id="GztpzwyUtiFWnYNijwIe-2" value="DS_Seed&lt;br&gt;sceneB" style="rounded=1;whiteSpace=wrap;html=1;" vertex="1" parent="1">
          <mxGeometry x="953" y="756" width="120" height="60" as="geometry" />
        </mxCell>
        <mxCell id="GztpzwyUtiFWnYNijwIe-3" value="DS" style="rounded=1;whiteSpace=wrap;html=1;" vertex="1" parent="1">
          <mxGeometry x="993" y="880" width="120" height="60" as="geometry" />
        </mxCell>
        <mxCell id="GztpzwyUtiFWnYNijwIe-4" style="edgeStyle=orthogonalEdgeStyle;rounded=0;orthogonalLoop=1;jettySize=auto;html=1;" edge="1" parent="1" source="GztpzwyUtiFWnYNijwIe-6">
          <mxGeometry relative="1" as="geometry">
            <mxPoint x="1063" y="880" as="targetPoint" />
            <Array as="points">
              <mxPoint x="1123" y="820" />
              <mxPoint x="1063" y="820" />
            </Array>
          </mxGeometry>
        </mxCell>
        <mxCell id="GztpzwyUtiFWnYNijwIe-5" style="edgeStyle=orthogonalEdgeStyle;rounded=0;orthogonalLoop=1;jettySize=auto;html=1;entryX=0.5;entryY=0;entryDx=0;entryDy=0;" edge="1" parent="1" source="GztpzwyUtiFWnYNijwIe-6" target="GztpzwyUtiFWnYNijwIe-7">
          <mxGeometry relative="1" as="geometry">
            <Array as="points">
              <mxPoint x="1123" y="820" />
              <mxPoint x="1213" y="820" />
            </Array>
          </mxGeometry>
        </mxCell>
        <mxCell id="GztpzwyUtiFWnYNijwIe-9" style="edgeStyle=orthogonalEdgeStyle;rounded=0;orthogonalLoop=1;jettySize=auto;html=1;entryX=0.5;entryY=0;entryDx=0;entryDy=0;" edge="1" parent="1" source="GztpzwyUtiFWnYNijwIe-6" target="GztpzwyUtiFWnYNijwIe-2">
          <mxGeometry relative="1" as="geometry">
            <Array as="points">
              <mxPoint x="1013" y="710" />
            </Array>
          </mxGeometry>
        </mxCell>
        <mxCell id="GztpzwyUtiFWnYNijwIe-6" value="BattleGuard" style="rounded=1;whiteSpace=wrap;html=1;" vertex="1" parent="1">
          <mxGeometry x="1063" y="676" width="120" height="60" as="geometry" />
        </mxCell>
        <mxCell id="GztpzwyUtiFWnYNijwIe-7" value="DS" style="rounded=1;whiteSpace=wrap;html=1;" vertex="1" parent="1">
          <mxGeometry x="1153" y="880" width="120" height="60" as="geometry" />
        </mxCell>
        <mxCell id="GztpzwyUtiFWnYNijwIe-8" value="Pod" style="text;html=1;strokeColor=none;fillColor=none;align=center;verticalAlign=middle;whiteSpace=wrap;rounded=0;fontColor=#FF00FF;" vertex="1" parent="1">
          <mxGeometry x="1233" y="660" width="60" height="30" as="geometry" />
        </mxCell>
      </root>
    </mxGraphModel>
  </diagram>
</mxfile>
